<svg width="52" height="25" viewBox="0 0 52 25" fill="none" xmlns="http://www.w3.org/2000/svg">
    <path opacity="0.5" fill-rule="evenodd" clip-rule="evenodd" d="M18.6605 21.3874V0.5H22.4303V9.90517C22.4303 9.90517 24.0397 7.09678 29.2013 7.09678C34.7255 7.09678 37.9878 11.0314 37.9878 15.9169C37.9878 16.5007 37.9439 17.065 37.8586 17.6069C38.7586 15.094 41.8374 13.8543 46.9045 13.8543H51.5007V13.0352C51.5007 10.7387 49.4998 9.53931 46.9045 9.53931C42.9172 9.53931 42.7142 12.0844 42.7142 12.0844H38.7995C38.7995 11.3823 39.3069 7.03809 47.18 7.03809C49.8697 7.03809 52.821 7.61005 54.31 9.85468L53.1826 7.72607H57.5904L63.9265 20.5247L70.2481 7.72607H74.2498L62.752 30.5003H58.5618L61.8821 24.1522L54.7894 10.7599C55.1088 11.5334 55.2879 12.4585 55.285 13.5617V21.7821C55.285 22.7329 55.4155 24.2248 55.4155 24.2248H51.9357C51.9357 24.2248 51.8487 23.0254 51.8487 21.8114C51.8487 21.8114 50.0798 24.8684 44.5846 24.8684C40.5684 24.8684 37.5815 22.9084 37.5815 19.3102C37.5815 19.1196 37.5903 18.9341 37.6077 18.7537C36.5608 22.4432 33.4299 24.8393 29.2013 24.8393C24.2281 24.8393 22.4013 21.9578 22.4013 21.9578C22.4013 23.0402 22.2708 24.2396 22.2708 24.2396H18.5735C18.5735 24.2396 18.6605 22.5722 18.6605 21.3874ZM0 16.0342C0 9.2765 4.36423 7.03857 9.59842 7.03857C16.703 7.03857 18.6604 11.8362 18.6604 14.9372V16.9118H3.82777C3.82777 20.0712 6.20562 22.3092 9.49692 22.3092C13.5422 22.3092 14.3686 19.4423 14.3686 19.4423H18.2399C18.2399 19.4423 17.7324 24.7665 9.72891 24.7665C2.92882 24.7665 0 21.3877 0 16.0342ZM14.7458 14.4109C14.7458 11.5001 12.6 9.56934 9.46816 9.56934C6.71333 9.56934 3.915 11.3246 3.9295 14.4109H14.7458ZM28.259 9.67139C31.8113 9.67139 34.0731 12.3335 34.0731 15.9025C34.0731 19.7348 31.4633 22.236 28.288 22.236C24.4892 22.236 22.4448 19.2521 22.4448 15.9317C22.4448 12.8601 24.2717 9.67139 28.259 9.67139ZM51.5151 16.3115V17.4085C51.5151 18.8274 50.6452 22.3671 45.527 22.3671C42.7142 22.3671 41.5107 20.9483 41.5107 19.3101C41.5107 16.3408 45.556 16.3115 51.5151 16.3115Z" fill="#E7EDF4"/>
    <path opacity="0.5" fill-rule="evenodd" clip-rule="evenodd" d="M26.5135 0.515631C23.8941 0.698322 21.6772 2.89792 21.6772 5.99636L21.6772 20.7432C21.6772 21.2766 21.2821 21.737 20.7041 21.737H16.0946C6.1148 21.7516 7.00011 9.00711 15.4947 8.99249L20.6017 8.99249V5.28752L15.3191 5.28752C11.9315 5.28752 9.4219 6.55174 7.73177 8.4298C6.03432 10.3152 5.18559 12.8436 5.18559 15.3721C5.17828 17.9005 6.01969 20.4143 7.75372 22.2997C9.48775 24.1778 12.1071 25.442 15.6995 25.442L24.399 25.442C24.9697 25.442 25.4452 24.9451 25.4452 24.3751L25.4452 6.39097C25.4379 5.4629 25.9647 4.74675 26.6452 4.53483C27.3256 4.32291 28.1231 4.59329 28.5914 5.26559L28.6133 5.28752C31.0863 9.32864 40.9052 25.062 40.9198 25.0912C41.1905 25.4712 41.5125 25.5443 41.7466 25.4639C41.9807 25.3835 42.2149 25.1351 42.2149 24.5066L42.2149 6.39097C42.2075 5.4629 42.7343 4.74675 43.4148 4.53483C44.0952 4.32291 44.8781 4.59329 45.3464 5.26559V5.28752H45.3829C47.856 9.32864 57.6748 25.062 57.6895 25.0912C57.9529 25.4712 58.2675 25.5443 58.5162 25.4639C58.765 25.3835 59.0064 25.1497 59.0064 24.5285L59.0064 0.61063L55.275 0.61063L55.275 14.5682C55.275 14.5682 53.0507 10.7756 49.2461 4.23522C45.5146 -2.16627 38.4688 0.486399 38.4688 5.99636L38.4688 14.5682C38.4688 14.5682 36.2811 10.7756 32.4692 4.23522C30.8302 1.43639 28.5548 0.362171 26.5135 0.515631ZM15.9702 0.610178C-4.77967 0.610178 -4.58213 30.1477 16.2482 30.1623L24.3989 30.1623C27.9035 30.1623 30.1351 28.0942 30.1351 24.265L30.1351 16.7747C30.1351 16.7747 34.708 24.3308 36.5079 27.2904C39.5589 32.3253 46.9267 31.3315 46.9047 25.0469V16.7747C46.9047 16.7747 51.463 24.3308 53.2555 27.2904C56.3065 32.3253 63.6963 31.3315 63.6744 25.0469L63.6744 0.602869H59.9429L59.9429 24.5208C59.9502 25.4415 59.4673 26.1211 58.8015 26.3331C58.1357 26.5523 57.3748 26.2746 56.9065 25.6242H56.8919V25.5877C56.8919 25.5877 47.0657 9.89819 44.5634 5.80591C44.5561 5.7986 44.5488 5.81322 44.5415 5.80591C44.5342 5.80591 44.5488 5.78399 44.5415 5.78399C44.2854 5.44053 43.9488 5.36745 43.6781 5.44783C43.4001 5.53553 43.1294 5.77668 43.1367 6.38321L43.1367 24.4989C43.144 25.4123 42.6684 26.1285 42.0099 26.355C41.3514 26.5742 40.5978 26.2819 40.1369 25.6242V25.6023H40.1149C40.1149 25.6023 30.2814 9.88357 27.7865 5.7986C27.5231 5.42591 27.1865 5.33822 26.9085 5.42591C26.6305 5.5136 26.3597 5.75476 26.3671 6.36129V6.38321L26.3671 24.3673C26.3671 25.4562 25.4671 26.3696 24.3769 26.3696L15.6848 26.3696C11.8656 26.3696 8.97552 24.9958 7.06589 22.9277C5.15626 20.8596 4.21242 18.112 4.21242 15.3643C4.21973 12.6239 5.15626 9.85434 7.02199 7.78628C8.88772 5.71822 11.6827 4.34438 15.3044 4.34438L20.5869 4.34438V0.602869L15.9702 0.610178Z" fill="#E7EDF4"/>
    <path opacity="0.5" fill-rule="evenodd" clip-rule="evenodd" d="M13.0472 23.7734C16.5975 23.7734 19.2728 22.6404 21.367 20.5118C23.5229 18.4068 24.1922 15.4598 24.1922 13.0757C24.1922 12.3354 24.134 11.6566 24.0176 11.0865H13.0472V14.2653H20.8456C20.6128 16.0534 19.9993 17.359 19.072 18.2672C17.9351 19.3718 16.1619 20.5946 13.0472 20.5946C8.24635 20.5946 4.49166 16.8197 4.49166 12.1367C4.49166 7.45363 8.24635 3.67644 13.0472 3.67644C15.6352 3.67644 17.5299 4.67218 18.9243 5.94937L21.2239 3.70718C19.2728 1.89309 16.6848 0.5 13.0472 0.5C6.46928 0.5 0.940918 5.71995 0.940918 12.1367C0.940918 18.551 6.46928 23.7734 13.0472 23.7734ZM33.0705 23.7729C37.3167 23.7729 40.7797 20.5941 40.7797 16.2776C40.7797 11.9375 37.3167 8.78711 33.0705 8.78711C28.817 8.78711 25.354 11.9375 25.354 16.2776C25.354 20.5941 28.817 23.7729 33.0705 23.7729ZM33.0708 20.8216C30.7403 20.8216 28.73 18.9484 28.73 16.2781C28.73 13.5842 30.7403 11.7417 33.0708 11.7417C35.3964 11.7417 37.4043 13.5842 37.4043 16.2781C37.4043 18.9484 35.3964 20.8216 33.0708 20.8216ZM49.8884 23.7729C54.137 23.7729 57.6 20.5941 57.6 16.2776C57.6 11.9375 54.137 8.78711 49.8884 8.78711C45.6373 8.78711 42.1743 11.9375 42.1743 16.2776C42.1743 20.5941 45.6373 23.7729 49.8884 23.7729ZM49.8882 20.8216C47.5602 20.8216 45.5498 18.9484 45.5498 16.2781C45.5498 13.5842 47.5602 11.7417 49.8882 11.7417C52.2162 11.7417 54.2242 13.5842 54.2242 16.2781C54.2242 18.9484 52.2162 20.8216 49.8882 20.8216ZM66.4172 30.4995C70.3725 30.4995 73.7239 28.2313 73.7239 22.6944V9.24122H70.5204V10.4617H70.404C69.6449 9.58181 68.1899 8.78711 66.3614 8.78711C62.5178 8.78711 58.999 12.0794 58.999 16.3084C58.999 20.5113 62.5178 23.7729 66.3614 23.7729C68.1899 23.7729 69.6449 22.9782 70.404 22.07H70.5204V23.1485C70.5204 26.0174 68.949 27.5477 66.4172 27.5477C64.3535 27.5477 63.0707 26.1026 62.5444 24.8774L59.6077 26.0718C60.454 28.061 62.6924 30.4995 66.4172 30.4995ZM66.6474 20.8216C64.3218 20.8216 62.3696 18.9224 62.3696 16.3089C62.3696 13.6693 64.3218 11.7417 66.6474 11.7417C68.9488 11.7417 70.753 13.6693 70.753 16.3089C70.753 18.9224 68.9488 20.8216 66.6474 20.8216ZM79.425 1.29443H76.0493V23.319H79.425V1.29443ZM88.679 23.7729C92.1977 23.7729 94.2372 21.675 95.0811 20.4522L92.4596 18.7516C91.5891 19.9957 90.3959 20.8211 88.679 20.8211C86.9621 20.8211 85.7374 20.0548 84.9541 18.5506L95.2266 14.4044L94.8774 13.5553C94.2372 11.8808 92.285 8.78711 88.3007 8.78711C84.343 8.78711 81.0547 11.8264 81.0547 16.2776C81.0547 20.4806 84.3139 23.7729 88.679 23.7729ZM84.4013 16.0535C84.3139 13.1609 86.7002 11.6826 88.4171 11.6826C89.7557 11.6826 90.8907 12.3354 91.2714 13.272L84.4013 16.0535Z" fill="#E7EDF4"/>
</svg>