<svg width="52" height="25" viewBox="0 0 52 25" fill="none" xmlns="http://www.w3.org/2000/svg">
<path opacity="0.5" fill-rule="evenodd" clip-rule="evenodd" d="M11.5608 3.47093C12.2334 2.67877 12.6864 1.57587 12.5624 0.478516C11.5928 0.516617 10.4206 1.10716 9.72544 1.89932C9.1022 2.60019 8.55637 3.72255 8.70409 4.79808C9.78468 4.87944 10.8882 4.26349 11.5608 3.47093ZM13.9846 10.4349C14.011 13.2147 16.44 14.1768 16.5641 14.226L16.5688 14.2278L16.5658 14.2373C16.5235 14.373 16.1363 15.6137 15.2362 16.8936C14.4333 18.0354 13.6003 19.1729 12.2879 19.1967C11.6581 19.2079 11.237 19.0306 10.7992 18.8463C10.3407 18.6533 9.86393 18.4525 9.10972 18.4525C8.32083 18.4525 7.8221 18.6592 7.34159 18.8583C6.92479 19.0311 6.5217 19.1981 5.95482 19.2197C4.6882 19.2665 3.72333 17.9854 2.91446 16.8476C1.26079 14.5207 -0.00306332 10.2722 1.69406 7.40439C2.53689 5.98041 4.04403 5.07872 5.67914 5.0549C6.38382 5.04208 7.06616 5.30553 7.66362 5.53619L7.66377 5.53624C8.1204 5.71254 8.52743 5.86969 8.85695 5.86969C9.15202 5.86969 9.54763 5.7178 10.009 5.54066C10.7358 5.26163 11.6259 4.91991 12.5435 5.01045C13.1714 5.03586 14.9337 5.25731 16.0653 6.86981L16.0598 6.87299C15.9133 6.95866 13.9617 8.09996 13.9838 10.4353L13.9846 10.4349ZM22.9428 1.88655C22.391 1.94711 21.841 2.02307 21.2935 2.11435V18.9564H22.5052V11.673C23.055 11.7909 23.7327 11.8496 24.54 11.8496C25.4334 11.8496 26.2576 11.7401 27.0132 11.521C27.7695 11.3019 28.422 10.969 28.9722 10.5221C29.5231 10.0742 29.9675 9.50839 30.2731 8.86594C30.5907 8.20793 30.7498 7.44118 30.7498 6.56488C30.7498 5.84019 30.6337 5.19925 30.4023 4.64284C30.1807 4.10147 29.8519 3.61105 29.4358 3.20139C28.9552 2.74577 28.341 2.39613 27.5938 2.15205C26.8465 1.90759 25.9579 1.78535 24.927 1.78535C24.2643 1.78227 23.6018 1.81606 22.9428 1.88655ZM22.5054 10.612C22.7976 10.6953 23.1235 10.7549 23.4849 10.7882C23.8451 10.8219 24.2313 10.8386 24.6437 10.8386C26.1895 10.8386 27.3878 10.4846 28.2377 9.77658C29.0881 9.06894 29.5134 8.03232 29.5134 6.66669C29.5134 6.00906 29.4013 5.43639 29.1777 4.94664C28.9659 4.472 28.6382 4.05878 28.2251 3.74532C27.8132 3.43336 27.3234 3.19763 26.7567 3.03729C26.1899 2.87656 25.5627 2.79639 24.8755 2.79639C24.3265 2.79639 23.8537 2.81741 23.4584 2.85989C23.0634 2.90155 22.7455 2.948 22.5054 2.99879V10.612ZM40.4074 17.5411C40.3904 17.0521 40.3817 16.5632 40.3817 16.0742H40.3825L40.3833 11.2943C40.3833 10.7379 40.3276 10.1775 40.2162 9.61237C40.1113 9.06451 39.8963 8.54391 39.5843 8.08243C39.2751 7.62761 38.8505 7.25613 38.3094 6.97038C37.7683 6.68346 37.0677 6.54057 36.2082 6.54057C35.5907 6.53827 34.9757 6.61916 34.3796 6.78108C33.7959 6.94142 33.2283 7.20692 32.6793 7.57721L33.0664 8.46303C33.5077 8.17039 33.9895 7.94441 34.4961 7.79231C35.0198 7.63237 35.5479 7.5522 36.0799 7.5522C36.7845 7.5522 37.3429 7.6788 37.7553 7.93161C38.1676 8.18481 38.4765 8.49637 38.6826 8.86743C38.886 9.23163 39.0212 9.63019 39.0815 10.0434C39.1381 10.4075 39.1685 10.7753 39.1724 11.1439V11.4725C36.6984 11.438 34.8476 11.8094 33.6193 12.5849C32.391 13.3608 31.7769 14.4649 31.7769 15.8976C31.7783 16.3122 31.8522 16.7232 31.9953 17.1121C32.1383 17.5117 32.3619 17.8775 32.6521 18.1864C32.9436 18.4987 33.3176 18.7516 33.773 18.9452C34.2283 19.1389 34.7568 19.2357 35.3579 19.2357C35.8386 19.2357 36.2809 19.177 36.685 19.0591C37.0886 18.9413 37.4496 18.7853 37.7671 18.5908C38.0696 18.4084 38.3505 18.192 38.6044 17.9459C38.8265 17.7318 39.0251 17.4944 39.1969 17.2379H39.2482L39.4287 18.9579H40.5622C40.4765 18.5015 40.4248 18.03 40.4074 17.5411ZM39.1708 12.4588C38.4871 12.4427 37.803 12.4679 37.1222 12.5342C36.4097 12.6017 35.7525 12.7497 35.1514 12.9771C34.5503 13.2049 34.0518 13.5379 33.6569 13.976C33.2619 14.4149 33.0645 14.996 33.0645 15.7215C33.0645 16.5811 33.3133 17.2137 33.8109 17.6185C34.3086 18.0233 34.867 18.2257 35.4855 18.2257C35.984 18.2257 36.4303 18.1583 36.8252 18.0233C37.2202 17.8884 37.5638 17.7066 37.856 17.4796C38.1386 17.2618 38.3861 17.0016 38.5899 16.7081C38.7803 16.4354 38.9322 16.1376 39.0413 15.8231C39.1274 15.4857 39.1701 15.2404 39.1704 15.0888V12.4592L39.1708 12.4588ZM45.8938 14.7093L42.7507 6.81827L42.7515 6.81787H41.4624L45.9195 18.0732C46.0229 18.3093 46.0743 18.4863 46.0743 18.6042C46.0743 18.6887 46.0221 18.8653 45.9195 19.1352C45.6272 19.8436 45.2966 20.4465 44.9273 20.9442C44.5581 21.4414 44.2188 21.8419 43.9095 22.1455C43.5489 22.4995 43.1797 22.786 42.8013 23.0051C42.4237 23.2242 42.0801 23.4012 41.7705 23.5361L42.1832 24.5223C42.3206 24.472 42.5916 24.3497 42.9944 24.1552C43.3985 23.9612 43.8408 23.6536 44.3215 23.2321C44.7446 22.8669 45.1213 22.4508 45.4431 21.9931C45.7781 21.5208 46.1086 20.9771 46.4345 20.3619C46.7889 19.6863 47.1113 18.9942 47.4005 18.2879C47.7513 17.437 48.0908 16.5814 48.4187 15.7213L51.9998 6.81827H50.7114L47.7738 14.6581C47.585 15.147 47.4132 15.6241 47.2591 16.0876C47.1047 16.5512 46.9673 16.9683 46.8468 17.3398H46.7955C46.6758 16.9508 46.5384 16.5254 46.3835 16.0618C46.2295 15.5983 46.0656 15.1474 45.8938 14.7093Z" fill="#E7EDF4"/>
</svg>
