<svg width="145" height="21" viewBox="0 0 145 21" fill="none" xmlns="http://www.w3.org/2000/svg">
<g opacity="0.5">
<path opacity="0.5" fill-rule="evenodd" clip-rule="evenodd" d="M56.7036 18.0026L44.1562 17.994V12.432C44.1562 11.6895 44.7889 11.0581 45.5392 11.0581H56.7036C58.6494 11.0581 60.22 12.6119 60.22 14.5222C60.22 16.4539 58.6494 18.0074 56.7036 18.0074V18.0026ZM44.1562 2.61713L56.7603 2.63133C58.5272 2.63133 59.9582 4.04529 59.9582 5.79067C59.9582 7.52615 58.5272 8.93795 56.7603 8.93795H45.3473C44.9328 8.96808 44.5227 9.06063 44.1562 9.21644V2.6167V2.61713ZM59.9802 9.9772C61.2585 9.01563 62.1005 7.49966 62.1005 5.78054C62.1005 2.87515 59.7054 0.507806 56.7561 0.507806L41.8848 0.500488V20.1095H56.7038C59.8275 20.1095 62.3579 17.6078 62.3579 14.5173C62.3579 12.645 61.4199 10.9922 59.9802 9.9772ZM126.015 10.3221C125.535 10.3221 125.081 10.4185 124.662 10.5868L124.619 2.61612L137.074 2.61182C139.234 2.61182 140.983 4.33051 140.983 6.46586C140.983 8.59906 139.234 10.3289 137.074 10.3289L125.993 10.3203L126.015 10.3221ZM143.427 18.002C142.881 18.4355 142.105 18.3481 141.629 17.8514L137.28 12.4048C140.53 12.3058 143.126 9.68187 143.126 6.46142C143.126 3.16521 140.421 0.5 137.083 0.5H122.368V20.1107H124.641L124.684 13.7219C124.728 13.0099 125.321 12.4168 126.059 12.4168H134.431L139.867 19.2292C141.119 20.6883 143.313 20.9315 144.84 19.7474L143.449 18.0012L143.427 18.002ZM85.1225 17.8656V12.5146C85.1225 11.7798 85.7551 11.1759 86.4924 11.1622H96.3741V8.90673H86.4575C85.9981 8.91607 85.5449 9.01252 85.1225 9.19081V2.74431H101.256V0.500488H82.832V20.1095H101.924V17.8661H85.1225V17.8656ZM19.2189 0.547528V11.9711C19.2189 15.8793 17.308 18.1899 11.5679 18.1899C5.8112 18.1899 3.88941 15.8798 3.88941 11.9711V3.94102C3.81655 2.03767 2.23461 0.508789 0.294922 0.508789V2.72549C0.9982 2.72549 1.55751 3.26438 1.62382 3.94102V12.751C1.62382 17.2791 5.2231 20.4978 11.5674 20.4978C17.9022 20.4978 21.4875 17.2791 21.4875 12.751V0.548388H19.2189V0.547528Z" fill="#E7EDF4"/>
</g>
</svg>
