<svg width="45" height="45" viewBox="0 0 45 45" fill="none" xmlns="http://www.w3.org/2000/svg">
<g opacity="0.5">
<path opacity="0.5" fill-rule="evenodd" clip-rule="evenodd" d="M0.918945 22.5C0.918945 10.0735 10.7024 0 22.7708 0C34.8393 0 44.6227 10.0735 44.6227 22.5C44.6227 34.9264 34.8393 45 22.7708 45C10.7024 45 0.918945 34.9264 0.918945 22.5ZM37.7262 7.10071C33.7313 2.98737 28.4201 0.722168 22.7706 0.722168C17.1211 0.722168 11.8098 2.98737 7.81503 7.10071C3.82015 11.214 1.62012 16.6828 1.62012 22.4999C1.62012 28.3169 3.82015 33.7859 7.81503 37.899C11.8098 42.0124 17.1211 44.2775 22.7706 44.2775C28.4201 44.2775 33.7313 42.0124 37.7262 37.899C41.721 33.7859 43.921 28.3169 43.921 22.4999C43.921 16.6828 41.721 11.2138 37.7262 7.10071Z" fill="#E7EDF4"/>
<path opacity="0.5" fill-rule="evenodd" clip-rule="evenodd" d="M18.2881 12.7081C18.2881 12.755 18.2893 12.8016 18.291 12.8483H27.2586V12.3554C27.2457 12.2156 27.2252 12.0777 27.1973 11.942C26.9515 10.7431 26.1391 9.72725 25.0247 9.13746L25.7102 7.83538C25.7526 7.75454 25.7235 7.65371 25.6452 7.60996C25.5669 7.56621 25.469 7.59621 25.4265 7.67683L24.7321 8.99579C24.1423 8.73454 23.4807 8.58808 22.7816 8.58808C22.0773 8.58808 21.4108 8.73663 20.8176 9.00163L20.1203 7.67683C20.0779 7.5962 19.9798 7.56621 19.9015 7.60996C19.8231 7.65371 19.794 7.75454 19.8366 7.83538L20.5258 9.14454C19.4634 9.711 18.6775 10.6654 18.3987 11.796C18.3264 12.0893 18.2881 12.3945 18.2881 12.7081ZM20.7296 11.2124C20.4965 11.2124 20.3076 11.0178 20.3076 10.7778C20.3076 10.5378 20.4965 10.3433 20.7296 10.3433C20.9627 10.3433 21.1517 10.5378 21.1517 10.7778C21.1517 11.0178 20.9627 11.2124 20.7296 11.2124ZM18.2798 13.2065H18.3292H27.267V19.9472C27.267 20.5095 26.8202 20.9697 26.2739 20.9697H25.4395V23.319C25.4391 23.8834 24.9948 24.3411 24.4465 24.3411C23.8982 24.3411 23.4532 23.8834 23.4532 23.319V20.9697H22.1152V23.319C22.115 23.8834 21.6705 24.3411 21.1222 24.3411C20.5739 24.3411 20.1292 23.8834 20.1292 23.319V20.9697H19.273C18.7267 20.9697 18.2798 20.5095 18.2798 19.9472V13.2065ZM24.3955 10.7778C24.3955 11.0178 24.5845 11.2124 24.8176 11.2124C25.0507 11.2124 25.2396 11.0178 25.2396 10.7778C25.2396 10.5378 25.0507 10.3433 24.8176 10.3433C24.5845 10.3433 24.3955 10.5378 24.3955 10.7778ZM29.6038 14.0499C29.6038 13.4855 29.159 13.0278 28.6107 13.0278C28.0624 13.0278 27.6179 13.4855 27.6177 14.0499V18.3449C27.6177 18.9095 28.0624 19.3672 28.6107 19.3672C29.159 19.3672 29.6036 18.9095 29.6038 18.3449V14.0499ZM17.9241 18.3449V14.0499C17.9239 13.4855 17.4793 13.0278 16.931 13.0278C16.3827 13.0278 15.938 13.4855 15.938 14.0499V18.3449C15.9382 18.9095 16.3827 19.3672 16.931 19.3672C17.4793 19.3672 17.9241 18.9095 17.9241 18.3449Z" fill="#E7EDF4"/>
<path opacity="0.5" fill-rule="evenodd" clip-rule="evenodd" d="M12.7752 36.7592V33.5265C13.4123 34.1825 14.292 34.5806 15.2929 34.5806C17.4542 34.5806 19.1681 32.7613 19.1681 30.5204C19.1681 28.2715 17.4542 26.4521 15.2929 26.4521C14.292 26.4521 13.4123 26.8504 12.7752 27.4986V26.6084H11.6377V36.7592H12.7752ZM27.4643 34.4167V26.6084H26.3268V27.4986C25.6897 26.8425 24.8101 26.4521 23.809 26.4521C21.6402 26.4521 19.934 28.2637 19.934 30.5046C19.934 32.7536 21.6402 34.5729 23.809 34.5729C24.8101 34.5729 25.6897 34.1746 26.3268 33.5265V34.4167H27.4643ZM35.7381 26.6011H34.4565L31.9578 32.7628L29.4666 26.609H28.147L31.294 34.1284L31.0438 34.714C30.7633 35.3621 30.2324 35.6431 29.7243 35.6431H29.3071V36.8223H29.7092C30.839 36.8223 31.7339 36.1977 32.2116 35.0109L35.7381 26.6011ZM21.0791 30.5047C21.0791 32.1212 22.3379 33.433 23.8926 33.433C24.8632 33.433 25.7353 32.9333 26.2435 32.1524C26.2737 32.1135 26.3192 32.0274 26.3269 31.8868V29.1149C26.3269 29.0016 26.2881 28.9281 26.2627 28.8799C26.2583 28.8716 26.2543 28.864 26.251 28.8572C25.7808 28.0531 24.8632 27.5845 23.8926 27.5845C22.3379 27.5845 21.0791 28.8964 21.0791 30.5047ZM12.8512 32.1681C13.3366 32.9646 14.239 33.4408 15.2097 33.4408C16.7567 33.4408 18.0156 32.1289 18.0156 30.5206C18.0156 28.9041 16.7567 27.5923 15.2097 27.5923C14.239 27.5923 13.3669 28.0688 12.8588 28.8496C12.8284 28.8885 12.783 28.9744 12.7754 29.1073V31.9104C12.7754 32.0431 12.8209 32.1213 12.8512 32.1681Z" fill="#E7EDF4"/>
</g>
</svg>
