<svg width="99" height="31" viewBox="0 0 99 31" fill="none" xmlns="http://www.w3.org/2000/svg">
<g opacity="0.5">
<path opacity="0.5" fill-rule="evenodd" clip-rule="evenodd" d="M52.0994 8.0374C52.0994 9.11848 51.2197 9.98935 50.1276 9.98935C49.0355 9.98935 48.1558 9.11848 48.1558 8.0374C48.1558 6.95632 49.0052 6.08545 50.1276 6.08545C51.25 6.11548 52.0994 6.98635 52.0994 8.0374ZM43.9699 11.9712V12.4517C43.9699 12.4517 43.0295 11.2505 41.0273 11.2505C37.7207 11.2505 35.1421 13.743 35.1421 17.1964C35.1421 20.6199 37.6903 23.1424 41.0273 23.1424C43.0598 23.1424 43.9699 21.9111 43.9699 21.9111V22.4217C43.9699 22.6619 44.1519 22.8421 44.3946 22.8421H46.8518V11.5508H44.3946C44.1519 11.5508 43.9699 11.761 43.9699 11.9712ZM43.9697 19.2084C43.5146 19.869 42.6045 20.4396 41.5124 20.4396C39.5709 20.4396 38.0845 19.2384 38.0845 17.1964C38.0845 15.1543 39.5709 13.9531 41.5124 13.9531C42.5742 13.9531 43.545 14.5537 43.9697 15.1844V19.2084ZM48.6724 11.5508H51.5846V22.8421H48.6724V11.5508ZM92.1737 11.2504C90.1715 11.2504 89.2311 12.4516 89.2311 12.4516V6.11523H86.3188V22.842H88.7761C89.0188 22.842 89.2008 22.6318 89.2008 22.4215V21.911C89.2008 21.911 90.1412 23.1423 92.1434 23.1423C95.45 23.1423 98.0286 20.6197 98.0286 17.1963C98.0286 13.7729 95.45 11.2504 92.1737 11.2504ZM91.6882 20.4093C90.5657 20.4093 89.686 19.8388 89.231 19.1781V15.1541C89.686 14.5535 90.6568 13.9229 91.6882 13.9229C93.6297 13.9229 95.1162 15.1241 95.1162 17.1661C95.1162 19.2081 93.6297 20.4093 91.6882 20.4093ZM84.8018 16.1454V22.8721H81.8896V16.4757C81.8896 14.6139 81.2828 13.8631 79.6447 13.8631C78.7649 13.8631 77.8549 14.3136 77.2785 14.9742V22.8421H74.3662V11.5508H76.6718C76.9144 11.5508 77.0965 11.761 77.0965 11.9712V12.4517C77.9459 11.5808 79.0683 11.2505 80.1907 11.2505C81.4649 11.2505 82.5266 11.6108 83.376 12.3316C84.4074 13.1724 84.8018 14.2535 84.8018 16.1454ZM67.2982 11.2504C65.296 11.2504 64.3556 12.4516 64.3556 12.4516V6.11523H61.4434V22.842H63.9006C64.1433 22.842 64.3253 22.6318 64.3253 22.4215V21.911C64.3253 21.911 65.2657 23.1423 67.2679 23.1423C70.5745 23.1423 73.1531 20.6197 73.1531 17.1963C73.1834 13.7729 70.6049 11.2504 67.2982 11.2504ZM66.8127 20.4093C65.6903 20.4093 64.8105 19.8388 64.3555 19.1781V15.1541C64.8105 14.5535 65.7813 13.9229 66.8127 13.9229C68.7542 13.9229 70.2407 15.1241 70.2407 17.1661C70.2407 19.2081 68.7542 20.4093 66.8127 20.4093ZM58.9255 11.2505C59.8052 11.2505 60.2603 11.4006 60.2603 11.4006V14.0733C60.2603 14.0733 57.8334 13.2625 56.3166 14.9742V22.8721H53.4043V11.5508H55.8615C56.1042 11.5508 56.2862 11.761 56.2862 11.9712V12.4517C56.8323 11.8211 58.0154 11.2505 58.9255 11.2505ZM28.6803 21.8213C28.5287 21.461 28.377 21.0706 28.2253 20.7402C27.9826 20.1997 27.7399 19.6892 27.5276 19.2087L27.4972 19.1787C25.404 14.6742 23.1622 10.1096 20.796 5.60511L20.705 5.42493C20.4623 4.97447 20.2196 4.49399 19.9769 4.01351C19.6736 3.47297 19.3702 2.9024 18.8848 2.36186C17.9141 1.16066 16.5186 0.5 15.0321 0.5C13.5153 0.5 12.1502 1.16066 11.1491 2.3018C10.6941 2.84234 10.3604 3.41291 10.057 3.95345C9.81434 4.43393 9.57165 4.91441 9.32896 5.36487L9.23795 5.54505C6.90207 10.0496 4.62687 14.6141 2.53368 19.1186L2.50334 19.1787C2.29099 19.6592 2.0483 20.1697 1.80561 20.7102C1.65393 21.0405 1.50225 21.4009 1.35057 21.7913C0.956204 22.9024 0.83486 23.9535 0.98654 25.0345C1.32024 27.2868 2.83704 29.1787 4.93023 30.0195C5.71897 30.3499 6.53804 30.5 7.38745 30.5C7.63014 30.5 7.9335 30.47 8.17619 30.4399C9.17728 30.3198 10.2087 29.9895 11.2098 29.4189C12.4536 28.7282 13.6367 27.7372 14.9715 26.2958C16.3063 27.7372 17.5197 28.7282 18.7331 29.4189C19.7342 29.9895 20.7657 30.3198 21.7668 30.4399C22.0094 30.47 22.3128 30.5 22.5555 30.5C23.4049 30.5 24.2543 30.3499 25.0097 30.0195C27.1332 29.1787 28.6197 27.2568 28.9534 25.0345C29.1961 23.9835 29.0747 22.9324 28.6803 21.8213ZM15.0016 23.3828C13.3634 21.3408 12.3016 19.4188 11.9376 17.7972C11.7859 17.1065 11.7556 16.5059 11.8466 15.9654C11.9073 15.4849 12.0893 15.0645 12.332 14.7041C12.9084 13.8933 13.8791 13.3828 15.0016 13.3828C16.124 13.3828 17.1251 13.8633 17.6711 14.7041C17.9138 15.0645 18.0958 15.4849 18.1565 15.9654C18.2475 16.5059 18.2172 17.1366 18.0655 17.7972C17.7015 19.3888 16.6397 21.3107 15.0016 23.3828ZM27.1028 24.7942C26.8905 26.3558 25.8287 27.7072 24.3453 28.3078C23.6172 28.6081 22.8285 28.6981 22.0397 28.6081C21.2813 28.518 20.5229 28.2777 19.7342 27.8273C18.6421 27.2267 17.55 26.2957 16.2759 24.9144C18.2781 22.4819 19.4915 20.2597 19.9465 18.2777C20.1589 17.3468 20.1892 16.506 20.0982 15.7252C19.9769 14.9744 19.7039 14.2837 19.2791 13.6831C18.3387 12.3318 16.7613 11.551 15.0018 11.551C13.2423 11.551 11.6648 12.3618 10.7244 13.6831C10.2997 14.2837 10.0266 14.9744 9.9053 15.7252C9.78395 16.506 9.81429 17.3768 10.057 18.2777C10.512 20.2597 11.7558 22.512 13.7276 24.9444C12.4839 26.3258 11.3614 27.2567 10.2693 27.8573C9.48059 28.3078 8.72219 28.548 7.96379 28.6381C7.14472 28.7282 6.35598 28.6081 5.65825 28.3378C4.17178 27.7372 3.11002 26.3858 2.89767 24.8243C2.80666 24.0735 2.86733 23.3228 3.17069 22.4819C3.2617 22.1816 3.41338 21.8813 3.56506 21.521C3.77741 21.0405 4.0201 20.53 4.26279 20.0195L4.29312 19.9594C6.38631 15.4849 8.63118 10.9204 10.9671 6.47593L11.0581 6.29575C11.3008 5.8453 11.5434 5.36482 11.7861 4.91437C12.0288 4.43389 12.3018 3.98343 12.6355 3.59304C13.2726 2.87232 14.122 2.48193 15.0624 2.48193C16.0028 2.48193 16.8523 2.87232 17.4893 3.59304C17.823 3.98343 18.096 4.43389 18.3387 4.91437C18.5814 5.36482 18.8241 5.8453 19.0668 6.29575L19.1578 6.47593C21.4633 10.9504 23.7082 15.515 25.7984 19.9894V20.0195C26.0411 20.5 26.2534 21.0405 26.4961 21.521C26.6478 21.8813 26.7995 22.1816 26.8905 22.4819C27.1332 23.2627 27.2242 24.0135 27.1028 24.7942Z" fill="#E7EDF4"/>
</g>
</svg>
