<svg width="59" height="31" viewBox="0 0 59 31" fill="none" xmlns="http://www.w3.org/2000/svg">
<g opacity="0.5">
<path opacity="0.5" fill-rule="evenodd" clip-rule="evenodd" d="M57.2969 29.0234H57.586L57.9846 30.0942H57.9924L58.3754 29.0234H58.6567V30.3236H58.4691V29.2605H58.4613L58.0628 30.3236H57.883L57.4923 29.2605H57.4844V30.3236H57.2969V29.0234ZM57.203 29.0234V29.1764H56.7497V30.3236H56.5622V29.1764H56.1089V29.0234H57.203ZM58.6566 9.80411C58.6566 9.12342 58.0939 8.57275 57.3984 8.57275C56.7028 8.57275 56.1323 9.12342 56.1323 9.80411V12.4045C56.1323 13.0852 56.7028 13.6435 57.3984 13.6435C58.0939 13.6435 58.6566 13.0852 58.6566 12.4045V9.80411ZM51.7167 6.40084C51.7167 5.71633 51.154 5.1626 50.435 5.1626C49.7394 5.1626 49.1768 5.71633 49.1768 6.40084V12.4047C49.1768 13.0854 49.7394 13.6437 50.435 13.6437C51.154 13.6437 51.7167 13.0854 51.7167 12.4047V6.40084ZM44.7528 1.73518C44.7528 1.05373 44.1901 0.5 43.4946 0.5C42.799 0.5 42.2285 1.05373 42.2285 1.73518V14.8671C42.2285 15.5554 42.799 16.1061 43.4946 16.1061C44.1901 16.1061 44.7528 15.5554 44.7528 14.8671V1.73518ZM37.7977 6.40084C37.7977 5.71633 37.235 5.1626 36.5317 5.1626C35.8361 5.1626 35.2734 5.71633 35.2734 6.40084V12.4047C35.2734 13.0854 35.8361 13.6437 36.5317 13.6437C37.235 13.6437 37.7977 13.0854 37.7977 12.4047V6.40084ZM30.8426 9.80411C30.8426 9.12342 30.2721 8.57275 29.5766 8.57275C28.8811 8.57275 28.3105 9.12342 28.3105 9.80411V12.4045C28.3105 13.0852 28.8811 13.6435 29.5766 13.6435C30.2721 13.6435 30.8426 13.0852 30.8426 12.4045V9.80411ZM23.8944 6.40084C23.8944 5.71633 23.3239 5.1626 22.6284 5.1626C21.925 5.1626 21.3545 5.71633 21.3545 6.40084V12.4047C21.3545 13.0854 21.925 13.6437 22.6284 13.6437C23.3239 13.6437 23.8944 13.0854 23.8944 12.4047V6.40084ZM16.9393 1.73518C16.9393 1.05373 16.3688 0.5 15.6733 0.5C14.9699 0.5 14.4072 1.05373 14.4072 1.73518V14.8671C14.4072 15.5554 14.9699 16.1061 15.6733 16.1061C16.3688 16.1061 16.9393 15.5554 16.9393 14.8671V1.73518ZM9.98425 6.40084C9.98425 5.71633 9.41374 5.1626 8.7182 5.1626C8.01484 5.1626 7.45215 5.71633 7.45215 6.40084V12.4047C7.45215 13.0854 8.01484 13.6437 8.7182 13.6437C9.41374 13.6437 9.98425 13.0854 9.98425 12.4047V6.40084ZM3.02526 9.80411C3.02526 9.12342 2.4571 8.57275 1.76 8.57275C1.0621 8.57275 0.493164 9.12342 0.493164 9.80411V12.4045C0.493164 13.0852 1.0621 13.6435 1.76 13.6435C2.4571 13.6435 3.02526 13.0852 3.02526 12.4045V9.80411ZM29.1701 22.6838C29.131 22.6761 28.0525 22.3855 27.1694 22.3855C26.1534 22.3855 25.5986 22.7143 25.5986 23.1962C25.5986 23.7927 26.3488 24.0069 26.763 24.1369L27.4664 24.3511C29.1232 24.8711 29.8812 25.9801 29.8812 27.1809C29.8812 29.6665 27.6461 30.5002 25.6923 30.5002C24.3403 30.5002 23.0665 30.2631 22.9414 30.2325V27.9534C23.1681 28.0145 24.2387 28.3281 25.3485 28.3281C26.6145 28.3281 27.2007 27.961 27.2007 27.4027C27.2007 26.8979 26.7005 26.6073 26.0675 26.4161C25.9112 26.3625 25.6767 26.2937 25.5204 26.2402C24.0981 25.8042 22.918 24.9859 22.918 23.3491C22.918 21.4983 24.3325 20.2593 26.6849 20.2593C27.9196 20.2593 29.0919 20.5499 29.1701 20.5729V22.6838ZM48.0829 22.7832C46.5668 22.7832 45.4492 23.9457 45.4492 25.3836C45.4492 26.8214 46.5668 27.984 48.0829 27.984C49.599 27.984 50.7244 26.8214 50.7244 25.3836C50.7244 23.9457 49.599 22.7832 48.0829 22.7832ZM53.4206 25.3836C53.4206 28.2134 51.1933 30.5002 48.0828 30.5002C44.9724 30.5002 42.7451 28.2134 42.7451 25.3836C42.7451 22.5537 44.9724 20.2593 48.0828 20.2593C51.1933 20.2593 53.4206 22.5537 53.4206 25.3836ZM13.438 23.2727C13.3364 23.2191 12.5159 22.7449 11.2967 22.7449C9.63989 22.7449 8.49888 23.8692 8.49888 25.3836C8.49888 26.852 9.593 28.0222 11.2967 28.0222C12.4924 28.0222 13.3286 27.5556 13.438 27.4945V30.1484C13.1176 30.2402 12.2501 30.5002 11.1091 30.5002C8.24098 30.5002 5.72998 28.5652 5.72998 25.3836C5.72998 22.4237 8.00653 20.2593 11.1091 20.2593C12.3127 20.2593 13.1958 20.5423 13.438 20.6187V23.2727ZM40.0563 23.2727C39.9547 23.2191 39.1341 22.7449 37.915 22.7449C36.266 22.7449 35.125 23.8692 35.125 25.3836C35.125 26.852 36.2191 28.0222 37.915 28.0222C39.1107 28.0222 39.9469 27.5556 40.0563 27.4945V30.1484C39.7437 30.2402 38.8684 30.5002 37.7352 30.5002C34.8671 30.5002 32.3506 28.5652 32.3506 25.3836C32.3506 22.4237 34.6248 20.2593 37.7352 20.2593C38.9309 20.2593 39.8218 20.5423 40.0563 20.6187V23.2727ZM19.495 30.3242H16.9473V20.4351H19.495V30.3242Z" fill="#E7EDF4"/>
</g>
</svg>
