<svg width="92" height="23" viewBox="0 0 92 23" fill="none" xmlns="http://www.w3.org/2000/svg">
<g opacity="0.5">
<path opacity="0.5" fill-rule="evenodd" clip-rule="evenodd" d="M29.2712 5.2334H34.3372C36.0327 5.2334 37.3098 5.68723 38.0298 6.54528C38.6853 7.32671 38.9024 8.44248 38.6757 9.86256C38.1727 13.1085 36.2468 14.7464 32.9098 14.7464H31.3061C30.9601 14.7464 30.6646 15.0019 30.6112 15.3498L30.0587 18.9038C30.0046 19.2516 29.7098 19.5071 29.3631 19.5071H26.9446C26.6846 19.5071 26.4861 19.2727 26.5268 19.0127L28.5757 5.83599C28.6298 5.48886 28.9246 5.2334 29.2712 5.2334ZM31.9129 11.8899C33.2558 11.8899 34.6447 11.8899 34.9218 10.046C35.0233 9.39835 34.9418 8.9295 34.6758 8.61392C34.2299 8.08496 33.367 8.08496 32.4521 8.08496H32.1018C31.8944 8.08496 31.7166 8.23824 31.6847 8.44637L31.1484 11.8899H31.9129Z" fill="#E7EDF4"/>
<path opacity="0.5" fill-rule="evenodd" clip-rule="evenodd" d="M47.0545 9.98728H49.4804C49.7397 9.98728 49.9374 10.2225 49.896 10.4817L48.5848 18.9037C48.53 19.2516 48.2367 19.5071 47.8893 19.5071H45.7041C45.4456 19.5071 45.2471 19.2727 45.2878 19.0112L45.396 18.3274C45.396 18.3274 44.1982 19.7363 42.0382 19.7363C40.7797 19.7363 39.7219 19.3681 38.9826 18.4845C38.1767 17.5235 37.8471 16.1455 38.0789 14.7044C38.5248 11.8154 40.8145 9.75586 43.4952 9.75586C44.6641 9.75586 45.8352 10.0143 46.3604 10.7875L46.53 11.0369L46.6374 10.3487C46.6693 10.1406 46.8478 9.98728 47.0545 9.98728ZM43.3619 17.1254C44.7649 17.1254 45.8649 16.1817 46.099 14.7759C46.2049 14.0951 46.0582 13.4775 45.6886 13.035C45.3197 12.5969 44.7597 12.3647 44.0708 12.3647C42.6893 12.3647 41.5708 13.3393 41.3523 14.7331C41.2382 15.4168 41.3745 16.0307 41.733 16.4619C42.0945 16.8962 42.6575 17.1254 43.3619 17.1254Z" fill="#E7EDF4"/>
<path opacity="0.5" d="M62.4003 9.98633H59.9626C59.73 9.98633 59.5114 10.1035 59.3796 10.2996L56.0174 15.3233L54.5922 10.4958C54.5026 10.1937 54.2277 9.98633 53.9166 9.98633H51.5211C51.23 9.98633 51.0277 10.2749 51.1203 10.5529L53.8055 18.5459L51.2811 22.1607C51.0826 22.4455 51.2826 22.8369 51.6255 22.8369H54.0603C54.2914 22.8369 54.5077 22.7227 54.6389 22.5304L62.747 10.6588C62.9411 10.3748 62.7418 9.98633 62.4003 9.98633Z" fill="#E7EDF4"/>
<path opacity="0.5" fill-rule="evenodd" clip-rule="evenodd" d="M65.4048 5.2334H70.4715C72.167 5.2334 73.4433 5.68723 74.1626 6.54528C74.8181 7.32671 75.0366 8.44248 74.8092 9.86256C74.3055 13.1085 72.3803 14.7464 69.0426 14.7464H67.4396C67.0937 14.7464 66.7981 15.0019 66.7448 15.3498L66.1633 19.0848C66.1255 19.3283 65.9189 19.5071 65.6774 19.5071H63.0774C62.8189 19.5071 62.6203 19.2727 62.6611 19.0127L64.71 5.83599C64.764 5.48886 65.0589 5.2334 65.4048 5.2334ZM68.0469 11.8899C69.3906 11.8899 70.7795 11.8899 71.0558 10.046C71.1573 9.39835 71.0765 8.9295 70.8106 8.61392C70.3647 8.08496 69.501 8.08496 68.5869 8.08496H68.2365C68.0284 8.08496 67.8521 8.23824 67.8202 8.44637L67.2832 11.8899H68.0469Z" fill="#E7EDF4"/>
<path opacity="0.5" fill-rule="evenodd" clip-rule="evenodd" d="M83.189 9.98728H85.6135C85.8735 9.98728 86.072 10.2225 86.032 10.4817L84.7201 18.9037C84.6661 19.2516 84.3712 19.5071 84.0253 19.5071H81.8409C81.5809 19.5071 81.3823 19.2727 81.4231 19.0112L81.5312 18.3274C81.5312 18.3274 80.3335 19.7363 78.1735 19.7363C76.9149 19.7363 75.8586 19.3681 75.1179 18.4845C74.312 17.5235 73.9838 16.1455 74.2149 14.7044C74.6609 11.8154 76.9498 9.75586 79.6305 9.75586C80.7994 9.75586 81.9698 10.0143 82.4949 10.7875L82.6653 11.0369L82.7727 10.3487C82.8038 10.1406 82.9809 9.98728 83.189 9.98728ZM79.4951 17.1254C80.8981 17.1254 81.9996 16.1817 82.2322 14.7759C82.3396 14.0951 82.1929 13.4775 81.8218 13.035C81.4529 12.5969 80.8929 12.3647 80.204 12.3647C78.8225 12.3647 77.7055 13.3393 77.4855 14.7331C77.3729 15.4168 77.5077 16.0307 77.8662 16.4619C78.2277 16.8962 78.7922 17.1254 79.4951 17.1254Z" fill="#E7EDF4"/>
<path opacity="0.5" d="M88.4737 5.59458L86.3945 19.0125C86.3537 19.2724 86.5523 19.5069 86.8108 19.5069H88.9011C89.2486 19.5069 89.5434 19.2514 89.5967 18.9035L91.6471 5.72757C91.6878 5.4676 91.4893 5.23242 91.2308 5.23242H88.89C88.6834 5.23317 88.5056 5.38645 88.4737 5.59458Z" fill="#E7EDF4"/>
<path opacity="0.25" d="M5.48936 22.0676L5.87677 19.5715L5.01381 19.5512H0.893066L3.75677 1.13301C3.76566 1.07741 3.79455 1.02556 3.83677 0.988744C3.87899 0.951928 3.93307 0.931641 3.98936 0.931641H10.9375C13.2442 0.931641 14.836 1.41853 15.6671 2.37952C16.0568 2.83034 16.3049 3.30145 16.4249 3.81989C16.5508 4.36388 16.5531 5.01381 16.4301 5.8065L16.4212 5.86436V6.37228L16.8108 6.59619C17.139 6.77276 17.3997 6.97488 17.5997 7.2063C17.9331 7.59175 18.1486 8.08164 18.2397 8.66245C18.3338 9.25978 18.3027 9.97057 18.1486 10.7753C17.9708 11.701 17.6834 12.5072 17.2953 13.1669C16.9383 13.7747 16.4834 14.2789 15.9434 14.6696C15.4279 15.0408 14.8153 15.3226 14.1227 15.5029C13.4516 15.6802 12.6864 15.7696 11.8471 15.7696H11.3064C10.9197 15.7696 10.5442 15.9109 10.2494 16.1641C9.95381 16.4226 9.75825 16.7757 9.69825 17.1619L9.65751 17.3866L8.97307 21.7858L8.94196 21.9473C8.93381 21.9984 8.91973 22.024 8.89899 22.0413C8.88047 22.0571 8.85381 22.0676 8.82788 22.0676H5.48936Z" fill="#E7EDF4"/>
<path opacity="0.5" d="M17.1796 5.92188C17.1588 6.05637 17.1351 6.19387 17.1084 6.33513C16.1922 11.1071 13.0573 12.7556 9.05363 12.7556H7.01512C6.52549 12.7556 6.11289 13.1162 6.0366 13.6061L4.99289 20.3203L4.69734 22.2235C4.64771 22.5451 4.89215 22.8351 5.21215 22.8351H8.82771C9.25586 22.8351 9.61956 22.5196 9.68697 22.0913L9.72252 21.9049L10.4033 17.523L10.447 17.2825C10.5136 16.8527 10.8781 16.5372 11.3062 16.5372H11.847C15.3499 16.5372 18.0922 15.0946 18.8936 10.92C19.2284 9.17604 19.0551 7.71989 18.1692 6.69578C17.901 6.38697 17.5684 6.13075 17.1796 5.92188Z" fill="#E7EDF4"/>
<path opacity="0.5" d="M16.2211 5.53478C16.0811 5.49345 15.9366 5.45588 15.7885 5.42207C15.6396 5.38901 15.487 5.35971 15.33 5.33416C14.7803 5.244 14.1781 5.20117 13.5329 5.20117H8.08699C7.95292 5.20117 7.82551 5.23198 7.71144 5.28758C7.46032 5.41005 7.27366 5.65124 7.22847 5.94653L6.06995 13.3896L6.03662 13.6067C6.11292 13.1168 6.52551 12.7562 7.01514 12.7562H9.05366C13.0574 12.7562 16.1922 11.1069 17.1085 6.33573C17.1359 6.19448 17.1588 6.05698 17.1796 5.92248C16.9477 5.79776 16.6966 5.69106 16.4263 5.60015C16.3596 5.57761 16.2907 5.55582 16.2211 5.53478Z" fill="#E7EDF4"/>
<path opacity="0.5" d="M7.22841 5.94688C7.27359 5.65159 7.46026 5.4104 7.71137 5.28868C7.82618 5.23308 7.95285 5.20227 8.08693 5.20227H13.5329C14.178 5.20227 14.7803 5.2451 15.3299 5.33526C15.4869 5.36081 15.6395 5.39011 15.7884 5.42317C15.9366 5.45699 16.081 5.49455 16.221 5.53588C16.2906 5.55692 16.3595 5.57871 16.4269 5.6005C16.6973 5.69141 16.9484 5.79886 17.1803 5.92283C17.4529 4.15938 17.178 2.95869 16.238 1.87147C15.2017 0.674541 13.3314 0.162109 10.938 0.162109H3.98989C3.501 0.162109 3.08396 0.522765 3.00841 1.01341L0.114333 19.621C0.0572957 19.9892 0.337296 20.3213 0.703222 20.3213H4.99285L6.06989 13.3899L7.22841 5.94688Z" fill="#E7EDF4"/>
</g>
</svg>
