<svg width="75" height="31" viewBox="0 0 75 31" fill="none" xmlns="http://www.w3.org/2000/svg">
<g opacity="0.5">
<path opacity="0.5" fill-rule="evenodd" clip-rule="evenodd" d="M18.6605 21.3874V0.5H22.4303V9.90517C22.4303 9.90517 24.0397 7.09678 29.2013 7.09678C34.7255 7.09678 37.9878 11.0314 37.9878 15.9169C37.9878 16.5007 37.9439 17.065 37.8586 17.6069C38.7586 15.094 41.8374 13.8543 46.9045 13.8543H51.5007V13.0352C51.5007 10.7387 49.4998 9.53931 46.9045 9.53931C42.9172 9.53931 42.7142 12.0844 42.7142 12.0844H38.7995C38.7995 11.3823 39.3069 7.03809 47.18 7.03809C49.8697 7.03809 52.821 7.61005 54.31 9.85468L53.1826 7.72607H57.5904L63.9265 20.5247L70.2481 7.72607H74.2498L62.752 30.5003H58.5618L61.8821 24.1522L54.7894 10.7599C55.1088 11.5334 55.2879 12.4585 55.285 13.5617V21.7821C55.285 22.7329 55.4155 24.2248 55.4155 24.2248H51.9357C51.9357 24.2248 51.8487 23.0254 51.8487 21.8114C51.8487 21.8114 50.0798 24.8684 44.5846 24.8684C40.5684 24.8684 37.5815 22.9084 37.5815 19.3102C37.5815 19.1196 37.5903 18.9341 37.6077 18.7537C36.5608 22.4432 33.4299 24.8393 29.2013 24.8393C24.2281 24.8393 22.4013 21.9578 22.4013 21.9578C22.4013 23.0402 22.2708 24.2396 22.2708 24.2396H18.5735C18.5735 24.2396 18.6605 22.5722 18.6605 21.3874ZM0 16.0342C0 9.2765 4.36423 7.03857 9.59842 7.03857C16.703 7.03857 18.6604 11.8362 18.6604 14.9372V16.9118H3.82777C3.82777 20.0712 6.20562 22.3092 9.49692 22.3092C13.5422 22.3092 14.3686 19.4423 14.3686 19.4423H18.2399C18.2399 19.4423 17.7324 24.7665 9.72891 24.7665C2.92882 24.7665 0 21.3877 0 16.0342ZM14.7458 14.4109C14.7458 11.5001 12.6 9.56934 9.46816 9.56934C6.71333 9.56934 3.915 11.3246 3.9295 14.4109H14.7458ZM28.259 9.67139C31.8113 9.67139 34.0731 12.3335 34.0731 15.9025C34.0731 19.7348 31.4633 22.236 28.288 22.236C24.4892 22.236 22.4448 19.2521 22.4448 15.9317C22.4448 12.8601 24.2717 9.67139 28.259 9.67139ZM51.5151 16.3115V17.4085C51.5151 18.8274 50.6452 22.3671 45.527 22.3671C42.7142 22.3671 41.5107 20.9483 41.5107 19.3101C41.5107 16.3408 45.556 16.3115 51.5151 16.3115Z" fill="#E7EDF4"/>
</g>
</svg>
