<svg width="64" height="31" viewBox="0 0 64 31" fill="none" xmlns="http://www.w3.org/2000/svg">
<g opacity="0.5">
<path opacity="0.5" fill-rule="evenodd" clip-rule="evenodd" d="M26.5135 0.515631C23.8941 0.698322 21.6772 2.89792 21.6772 5.99636L21.6772 20.7432C21.6772 21.2766 21.2821 21.737 20.7041 21.737H16.0946C6.1148 21.7516 7.00011 9.00711 15.4947 8.99249L20.6017 8.99249V5.28752L15.3191 5.28752C11.9315 5.28752 9.4219 6.55174 7.73177 8.4298C6.03432 10.3152 5.18559 12.8436 5.18559 15.3721C5.17828 17.9005 6.01969 20.4143 7.75372 22.2997C9.48775 24.1778 12.1071 25.442 15.6995 25.442L24.399 25.442C24.9697 25.442 25.4452 24.9451 25.4452 24.3751L25.4452 6.39097C25.4379 5.4629 25.9647 4.74675 26.6452 4.53483C27.3256 4.32291 28.1231 4.59329 28.5914 5.26559L28.6133 5.28752C31.0863 9.32864 40.9052 25.062 40.9198 25.0912C41.1905 25.4712 41.5125 25.5443 41.7466 25.4639C41.9807 25.3835 42.2149 25.1351 42.2149 24.5066L42.2149 6.39097C42.2075 5.4629 42.7343 4.74675 43.4148 4.53483C44.0952 4.32291 44.8781 4.59329 45.3464 5.26559V5.28752H45.3829C47.856 9.32864 57.6748 25.062 57.6895 25.0912C57.9529 25.4712 58.2675 25.5443 58.5162 25.4639C58.765 25.3835 59.0064 25.1497 59.0064 24.5285L59.0064 0.61063L55.275 0.61063L55.275 14.5682C55.275 14.5682 53.0507 10.7756 49.2461 4.23522C45.5146 -2.16627 38.4688 0.486399 38.4688 5.99636L38.4688 14.5682C38.4688 14.5682 36.2811 10.7756 32.4692 4.23522C30.8302 1.43639 28.5548 0.362171 26.5135 0.515631ZM15.9702 0.610178C-4.77967 0.610178 -4.58213 30.1477 16.2482 30.1623L24.3989 30.1623C27.9035 30.1623 30.1351 28.0942 30.1351 24.265L30.1351 16.7747C30.1351 16.7747 34.708 24.3308 36.5079 27.2904C39.5589 32.3253 46.9267 31.3315 46.9047 25.0469V16.7747C46.9047 16.7747 51.463 24.3308 53.2555 27.2904C56.3065 32.3253 63.6963 31.3315 63.6744 25.0469L63.6744 0.602869H59.9429L59.9429 24.5208C59.9502 25.4415 59.4673 26.1211 58.8015 26.3331C58.1357 26.5523 57.3748 26.2746 56.9065 25.6242H56.8919V25.5877C56.8919 25.5877 47.0657 9.89819 44.5634 5.80591C44.5561 5.7986 44.5488 5.81322 44.5415 5.80591C44.5342 5.80591 44.5488 5.78399 44.5415 5.78399C44.2854 5.44053 43.9488 5.36745 43.6781 5.44783C43.4001 5.53553 43.1294 5.77668 43.1367 6.38321L43.1367 24.4989C43.144 25.4123 42.6684 26.1285 42.0099 26.355C41.3514 26.5742 40.5978 26.2819 40.1369 25.6242V25.6023H40.1149C40.1149 25.6023 30.2814 9.88357 27.7865 5.7986C27.5231 5.42591 27.1865 5.33822 26.9085 5.42591C26.6305 5.5136 26.3597 5.75476 26.3671 6.36129V6.38321L26.3671 24.3673C26.3671 25.4562 25.4671 26.3696 24.3769 26.3696L15.6848 26.3696C11.8656 26.3696 8.97552 24.9958 7.06589 22.9277C5.15626 20.8596 4.21242 18.112 4.21242 15.3643C4.21973 12.6239 5.15626 9.85434 7.02199 7.78628C8.88772 5.71822 11.6827 4.34438 15.3044 4.34438L20.5869 4.34438V0.602869L15.9702 0.610178Z" fill="#E7EDF4"/>
</g>
</svg>
