<svg width="96" height="31" viewBox="0 0 96 31" fill="none" xmlns="http://www.w3.org/2000/svg">
<g opacity="0.5">
<path opacity="0.5" fill-rule="evenodd" clip-rule="evenodd" d="M13.0472 23.7734C16.5975 23.7734 19.2728 22.6404 21.367 20.5118C23.5229 18.4068 24.1922 15.4598 24.1922 13.0757C24.1922 12.3354 24.134 11.6566 24.0176 11.0865H13.0472V14.2653H20.8456C20.6128 16.0534 19.9993 17.359 19.072 18.2672C17.9351 19.3718 16.1619 20.5946 13.0472 20.5946C8.24635 20.5946 4.49166 16.8197 4.49166 12.1367C4.49166 7.45363 8.24635 3.67644 13.0472 3.67644C15.6352 3.67644 17.5299 4.67218 18.9243 5.94937L21.2239 3.70718C19.2728 1.89309 16.6848 0.5 13.0472 0.5C6.46928 0.5 0.940918 5.71995 0.940918 12.1367C0.940918 18.551 6.46928 23.7734 13.0472 23.7734ZM33.0705 23.7729C37.3167 23.7729 40.7797 20.5941 40.7797 16.2776C40.7797 11.9375 37.3167 8.78711 33.0705 8.78711C28.817 8.78711 25.354 11.9375 25.354 16.2776C25.354 20.5941 28.817 23.7729 33.0705 23.7729ZM33.0708 20.8216C30.7403 20.8216 28.73 18.9484 28.73 16.2781C28.73 13.5842 30.7403 11.7417 33.0708 11.7417C35.3964 11.7417 37.4043 13.5842 37.4043 16.2781C37.4043 18.9484 35.3964 20.8216 33.0708 20.8216ZM49.8884 23.7729C54.137 23.7729 57.6 20.5941 57.6 16.2776C57.6 11.9375 54.137 8.78711 49.8884 8.78711C45.6373 8.78711 42.1743 11.9375 42.1743 16.2776C42.1743 20.5941 45.6373 23.7729 49.8884 23.7729ZM49.8882 20.8216C47.5602 20.8216 45.5498 18.9484 45.5498 16.2781C45.5498 13.5842 47.5602 11.7417 49.8882 11.7417C52.2162 11.7417 54.2242 13.5842 54.2242 16.2781C54.2242 18.9484 52.2162 20.8216 49.8882 20.8216ZM66.4172 30.4995C70.3725 30.4995 73.7239 28.2313 73.7239 22.6944V9.24122H70.5204V10.4617H70.404C69.6449 9.58181 68.1899 8.78711 66.3614 8.78711C62.5178 8.78711 58.999 12.0794 58.999 16.3084C58.999 20.5113 62.5178 23.7729 66.3614 23.7729C68.1899 23.7729 69.6449 22.9782 70.404 22.07H70.5204V23.1485C70.5204 26.0174 68.949 27.5477 66.4172 27.5477C64.3535 27.5477 63.0707 26.1026 62.5444 24.8774L59.6077 26.0718C60.454 28.061 62.6924 30.4995 66.4172 30.4995ZM66.6474 20.8216C64.3218 20.8216 62.3696 18.9224 62.3696 16.3089C62.3696 13.6693 64.3218 11.7417 66.6474 11.7417C68.9488 11.7417 70.753 13.6693 70.753 16.3089C70.753 18.9224 68.9488 20.8216 66.6474 20.8216ZM79.425 1.29443H76.0493V23.319H79.425V1.29443ZM88.679 23.7729C92.1977 23.7729 94.2372 21.675 95.0811 20.4522L92.4596 18.7516C91.5891 19.9957 90.3959 20.8211 88.679 20.8211C86.9621 20.8211 85.7374 20.0548 84.9541 18.5506L95.2266 14.4044L94.8774 13.5553C94.2372 11.8808 92.285 8.78711 88.3007 8.78711C84.343 8.78711 81.0547 11.8264 81.0547 16.2776C81.0547 20.4806 84.3139 23.7729 88.679 23.7729ZM84.4013 16.0535C84.3139 13.1609 86.7002 11.6826 88.4171 11.6826C89.7557 11.6826 90.8907 12.3354 91.2714 13.272L84.4013 16.0535Z" fill="#E7EDF4"/>
</g>
</svg>
