<svg width="14" height="12" viewBox="0 0 14 12" fill="none" xmlns="http://www.w3.org/2000/svg">
<path fill-rule="evenodd" clip-rule="evenodd" d="M8.51788 0.238643L13.7588 5.42386C14.0804 5.74205 14.0804 6.25794 13.7588 6.57614L8.51788 11.7614C8.19628 12.0795 7.67485 12.0795 7.35324 11.7614C7.03163 11.4432 7.03163 10.9273 7.35324 10.6091L9.45905 8.52565C10.0942 7.89725 9.64921 6.81478 8.75573 6.81478H0.814779C0.364789 6.81478 0 6.44999 0 6C0 5.55001 0.364789 5.18522 0.814779 5.18522H8.75573C9.64921 5.18522 10.0942 4.10275 9.45905 3.47435L7.35324 1.39091C7.03163 1.07272 7.03163 0.556834 7.35324 0.238643C7.67485 -0.0795478 8.19628 -0.0795478 8.51788 0.238643Z" fill="#0AD582"/>
</svg>
