<svg xmlns="http://www.w3.org/2000/svg" width="60" height="60" viewBox="0 0 60 60" fill="none">
    <circle cx="30" cy="30" r="29" stroke="#0AD582" stroke-width="2"/>
    <path fill-rule="evenodd" clip-rule="evenodd" d="M31.4274 24.2386L36.6126 29.4239C36.9308 29.7421 36.9308 30.2579 36.6126 30.5761L31.4274 35.7614C31.1092 36.0795 30.5933 36.0795 30.2751 35.7614C29.9569 35.4432 29.9569 34.9273 30.2751 34.6091L32.3623 32.5219C32.9923 31.8919 32.5461 30.8148 31.6552 30.8148H23.8148C23.3648 30.8148 23 30.45 23 30C23 29.55 23.3648 29.1852 23.8148 29.1852H31.6552C32.5461 29.1852 32.9923 28.1081 32.3623 27.4781L30.2751 25.3909C29.9569 25.0727 29.9569 24.5568 30.2751 24.2386C30.5933 23.9205 31.1092 23.9205 31.4274 24.2386Z" fill="#0AD582"/>
</svg>