<svg xmlns="http://www.w3.org/2000/svg" width="60" height="60" viewBox="0 0 60 60" fill="none">
    <circle cx="30" cy="30" r="29" transform="rotate(-180 30 30)" stroke="#0AD582" stroke-width="2"/>
    <path fill-rule="evenodd" clip-rule="evenodd" d="M28.5726 35.7614L23.3874 30.5761C23.0692 30.2579 23.0692 29.7421 23.3874 29.4239L28.5726 24.2386C28.8908 23.9205 29.4067 23.9205 29.7249 24.2386C30.0431 24.5568 30.0431 25.0727 29.7249 25.3909L27.6377 27.4781C27.0077 28.1081 27.4539 29.1852 28.3448 29.1852L36.1852 29.1852C36.6352 29.1852 37 29.55 37 30C37 30.45 36.6352 30.8148 36.1852 30.8148L28.3448 30.8148C27.4539 30.8148 27.0077 31.8919 27.6377 32.5219L29.7249 34.6091C30.0431 34.9273 30.0431 35.4432 29.7249 35.7614C29.4067 36.0795 28.8908 36.0795 28.5726 35.7614Z" fill="#0AD582"/>
</svg>