<svg width="1680" height="800" viewBox="0 0 1680 800" fill="none" xmlns="http://www.w3.org/2000/svg">
<path d="M312.857 -13.6472L312.857 -13.6471C320.512 -8.08555 325.539 0.144262 328.243 10.3862C330.945 20.6232 331.319 32.8365 329.712 46.3292C326.498 73.314 315.37 105.368 299.204 136.867C283.039 168.365 261.847 199.289 238.52 224.016C215.174 248.763 189.756 267.232 165.184 273.921C140.661 280.597 110.657 277.25 79.9265 267.258C49.2104 257.27 17.8705 240.674 -9.24086 220.976C-36.351 201.279 -59.2076 178.499 -72.9774 156.158C-86.7519 133.809 -91.4049 111.948 -82.223 94.0588C-73.0351 76.158 -47.647 57.6533 -13.6558 40.6593C20.3182 23.6739 62.8134 8.23413 106.099 -3.55073C149.387 -15.3364 193.434 -23.458 230.509 -25.8216C249.046 -27.0034 265.817 -26.744 279.868 -24.7926C293.92 -22.8411 305.215 -19.2032 312.857 -13.6472Z" stroke="#02515B"/>
<path d="M1161.18 22.7732C1196.37 25.4126 1236.25 47.125 1275.22 79.7833C1314.18 112.43 1352.17 155.963 1383.57 202.138C1414.97 248.316 1439.78 297.113 1452.39 340.281C1458.7 361.865 1461.95 382.023 1461.47 399.733C1460.98 417.443 1456.76 432.672 1448.15 444.435C1439.54 456.204 1425.4 466.049 1407.05 474.045C1388.71 482.038 1366.21 488.167 1340.91 492.526C1290.3 501.243 1228.58 502.873 1166.76 498.235C1104.95 493.597 1043.08 482.693 992.179 466.358C941.254 450.013 901.42 428.263 883.559 401.999C865.721 375.767 865.257 338.326 876.906 296.979C888.55 255.646 912.274 210.503 942.666 168.974C973.057 127.446 1010.1 89.5574 1048.35 62.7196C1086.61 35.8748 1126.02 20.1278 1161.18 22.7732L1161.24 22.2761L1161.18 22.7732Z" stroke="#02515B"/>
<path d="M1437.43 205.35L1437.43 205.35C1426.78 196.332 1420.61 183.462 1418.32 167.728C1416.03 152.001 1417.62 133.453 1422.44 113.118C1432.08 72.4476 1454.61 24.678 1484.68 -21.8769C1514.74 -68.431 1552.32 -113.754 1592.05 -149.533C1631.8 -185.33 1673.63 -211.512 1712.15 -219.879C1750.62 -228.235 1795.58 -220.941 1840.4 -203.552C1885.21 -186.167 1929.78 -158.722 1967.39 -126.89C2005 -95.0586 2035.62 -58.8611 2052.55 -23.9869C2069.48 10.8933 2072.69 44.4056 2055.57 70.9048C2038.45 97.4179 1996.65 123.634 1942.12 146.911C1887.62 170.181 1820.48 190.482 1752.8 205.186C1685.11 219.89 1616.91 228.989 1560.27 229.867C1531.96 230.306 1506.56 228.689 1485.58 224.701C1464.6 220.712 1448.07 214.361 1437.43 205.35Z" stroke="#02515B"/>
<path d="M319.088 286.908L319.088 286.908C328.979 279.097 345.008 272.957 365.734 268.371C386.448 263.787 411.787 260.769 440.218 259.17C497.08 255.972 566.229 258.454 635.329 265.383C704.426 272.312 773.448 283.686 830.055 298.264C886.689 312.85 930.797 330.618 950.189 350.296C969.548 369.941 969.181 396.49 955.181 425.079C941.182 453.667 913.574 484.244 878.582 511.873C843.592 539.501 801.247 564.159 757.804 580.919C714.356 597.68 669.864 606.52 630.542 602.576C591.193 598.63 547.044 580.883 504.179 555.438C461.328 530.003 419.818 496.909 385.742 462.333C351.663 427.755 325.035 391.712 311.928 360.381C305.374 344.714 302.207 330.243 303.166 317.732C304.125 305.22 309.206 294.706 319.088 286.908Z" stroke="#02515B"/>
<path d="M546.088 -85.7414L546.088 -85.7415C555.979 -93.5525 572.008 -99.692 592.734 -104.279C613.448 -108.863 638.787 -111.88 667.218 -113.479C724.08 -116.677 793.229 -114.196 862.329 -107.266C931.426 -100.337 1000.45 -88.963 1057.05 -74.385C1113.69 -59.7998 1157.8 -42.0318 1177.19 -22.3539C1196.55 -2.70811 1196.18 23.8403 1182.18 52.4299C1168.18 81.0171 1140.57 111.595 1105.58 139.224C1070.59 166.852 1028.25 191.51 984.804 208.269C941.356 225.03 896.864 233.871 857.542 229.927C818.193 225.98 774.044 208.233 731.179 182.789C688.328 157.353 646.818 124.26 612.742 89.6838C578.663 55.1059 552.035 19.0625 538.928 -12.2688C532.374 -27.9351 529.207 -42.4065 530.166 -54.9174C531.125 -67.4297 536.206 -77.9437 546.088 -85.7414Z" stroke="#02515B"/>
<path d="M722.09 83.6386C738.513 95.5697 749.253 113.189 755.023 135.046C760.792 156.898 761.585 182.951 758.16 211.714C751.308 269.238 727.589 337.553 693.143 404.671C658.698 471.788 613.536 537.692 563.815 590.398C514.076 643.123 459.84 682.57 407.29 696.875C354.789 711.167 290.653 703.979 225.115 682.669C159.592 661.363 92.7699 625.973 34.9791 583.984C-22.8104 541.997 -71.5435 493.43 -100.908 445.786C-130.278 398.136 -140.244 351.457 -120.616 313.215C-100.981 274.961 -46.7738 235.479 25.6656 199.262C98.0878 163.055 188.66 130.148 280.907 105.033C373.156 79.9175 467.049 62.6021 546.109 57.5619C585.639 55.0418 621.438 55.592 651.459 59.7613C681.481 63.9306 705.687 71.7132 722.09 83.6385L722.536 83.3853L722.09 83.6386Z" stroke="#02515B"/>
<path d="M1970.09 182.584C1986.51 194.515 1997.25 212.135 2003.02 233.991C2008.79 255.843 2009.59 281.896 2006.16 310.659C1999.31 368.184 1975.59 436.498 1941.14 503.616C1906.7 570.734 1861.54 636.638 1811.82 689.343C1762.08 742.069 1707.84 781.515 1655.29 795.82C1602.79 810.112 1538.65 802.924 1473.12 781.614C1407.59 760.309 1340.77 724.918 1282.98 682.93C1225.19 640.942 1176.46 592.375 1147.09 544.732C1117.72 497.081 1107.76 450.402 1127.38 412.16C1147.02 373.907 1201.23 334.424 1273.67 298.208C1346.09 262 1436.66 229.094 1528.91 203.979C1621.16 178.863 1715.05 161.547 1794.11 156.507C1833.64 153.987 1869.44 154.537 1899.46 158.707C1929.48 162.876 1953.69 170.659 1970.09 182.584L1970.54 182.331L1970.09 182.584Z" stroke="#02515B"/>
</svg>
