<svg width="54" height="60" viewBox="0 0 54 60" fill="none" xmlns="http://www.w3.org/2000/svg">
<path d="M50.8114 2.78326C58.5959 11.5521 44.6834 53.5833 32.2631 58.8257C19.8428 64.0682 -3.50506 37.7649 1.13245 23.7553C5.76996 9.74565 43.0331 -5.98505 50.8114 2.78326Z" fill="#0AD482"/>
<path d="M27.5081 40.1999C26.101 40.1999 24.7552 40.0344 23.4705 39.7033C22.2163 39.3723 21.0999 38.9058 20.121 38.3039C19.5705 37.9427 19.1728 37.6117 18.9281 37.3107C18.714 36.9796 18.6069 36.5884 18.6069 36.1369C18.6069 35.7457 18.714 35.4297 18.9281 35.1889C19.1728 34.918 19.4787 34.7826 19.8458 34.7826C20.2128 34.7826 20.7481 35.0083 21.4516 35.4598C22.3693 36.0015 23.2716 36.4379 24.1587 36.769C25.0763 37.0699 26.2081 37.2204 27.554 37.2204C29.2057 37.2204 30.4904 36.9345 31.4081 36.3627C32.3257 35.7908 32.7846 34.9632 32.7846 33.8797C32.7846 33.2176 32.6163 32.6909 32.2799 32.2997C31.9434 31.8783 31.3622 31.5172 30.5363 31.2162C29.7104 30.8852 28.5022 30.5541 26.9116 30.223C24.2199 29.6512 22.2928 28.8838 21.1305 27.9207C19.9681 26.9576 19.3869 25.6484 19.3869 23.9931C19.3869 22.699 19.754 21.5553 20.4881 20.5622C21.2222 19.569 22.2316 18.7865 23.5163 18.2147C24.8316 17.6428 26.3152 17.3569 27.9669 17.3569C29.1599 17.3569 30.3069 17.5225 31.4081 17.8535C32.5399 18.1545 33.534 18.5909 34.3904 19.1627C35.4304 19.885 35.9504 20.6374 35.9504 21.4199C35.9504 21.8112 35.8281 22.1422 35.5834 22.4131C35.3387 22.684 35.0481 22.8194 34.7116 22.8194C34.3446 22.8194 33.794 22.5636 33.0599 22.0519C32.2034 21.5102 31.3928 21.0889 30.6281 20.7879C29.8634 20.4869 28.9152 20.3365 27.7834 20.3365C26.3457 20.3365 25.1834 20.6525 24.2963 21.2845C23.4399 21.9165 23.0116 22.7592 23.0116 23.8126C23.0116 24.4747 23.1646 25.0164 23.4705 25.4378C23.8069 25.829 24.3422 26.1902 25.0763 26.5212C25.841 26.8222 26.9269 27.1231 28.334 27.4241C30.414 27.8755 32.0199 28.3721 33.1516 28.9139C34.314 29.4556 35.1398 30.1177 35.6293 30.9002C36.1187 31.6827 36.3634 32.6759 36.3634 33.8797C36.3634 35.7758 35.5528 37.3107 33.9316 38.4844C32.3104 39.6281 30.1693 40.1999 27.5081 40.1999Z" fill="#E7EDF4"/>
</svg>
