<svg width="24" height="24" viewBox="0 0 24 24" fill="none" xmlns="http://www.w3.org/2000/svg">
    <g clip-path="url(#clip0_2401_1841)">
        <path d="M8.00279 3.89209C5.73413 3.89209 3.89746 5.73075 3.89746 7.99742C3.89746 10.2661 5.73613 12.1027 8.00279 12.1027C10.2715 12.1027 12.1081 10.2641 12.1081 7.99742C12.1081 5.72875 10.2695 3.89209 8.00279 3.89209ZM8.00279 10.6621C6.53013 10.6621 5.33813 9.46942 5.33813 7.99742C5.33813 6.52542 6.53079 5.33275 8.00279 5.33275C9.47479 5.33275 10.6675 6.52542 10.6675 7.99742C10.6681 9.46942 9.47546 10.6621 8.00279 10.6621Z" fill="#F2EFF4"/>
        <path d="M11.2988 0.0507461C9.82682 -0.0179206 6.18082 -0.0145873 4.70748 0.0507461C3.41282 0.111413 2.27082 0.42408 1.35015 1.34475C-0.188515 2.88341 0.00815151 4.95675 0.00815151 7.99742C0.00815151 11.1094 -0.165182 13.1348 1.35015 14.6501C2.89482 16.1941 4.99815 15.9921 8.00282 15.9921C11.0855 15.9921 12.1495 15.9941 13.2395 15.5721C14.7215 14.9968 15.8401 13.6721 15.9495 11.2928C16.0188 9.82009 16.0148 6.17475 15.9495 4.70142C15.8175 1.89275 14.3101 0.189413 11.2988 0.0507461ZM13.6288 13.6321C12.6201 14.6408 11.2208 14.5508 7.98348 14.5508C4.65015 14.5508 3.31348 14.6001 2.33815 13.6221C1.21482 12.5041 1.41815 10.7088 1.41815 7.98675C1.41815 4.30342 1.04015 1.65075 4.73682 1.46141C5.58615 1.43141 5.83615 1.42141 7.97415 1.42141L8.00415 1.44141C11.5568 1.44141 14.3441 1.06941 14.5115 4.76542C14.5495 5.60875 14.5581 5.86208 14.5581 7.99675C14.5575 11.2914 14.6201 12.6361 13.6288 13.6321Z" fill="#F2EFF4"/>
        <path d="M12.2709 4.68942C12.8007 4.68942 13.2302 4.25991 13.2302 3.73009C13.2302 3.20026 12.8007 2.77075 12.2709 2.77075C11.741 2.77075 11.3115 3.20026 11.3115 3.73009C11.3115 4.25991 11.741 4.68942 12.2709 4.68942Z" fill="#F2EFF4"/>
    </g>
    <defs>
        <clipPath id="clip0_2401_1841">
            <rect width="24" height="24" fill="white"/>
        </clipPath>
    </defs>
</svg>