<svg width="24" height="24" viewBox="0 0 24 24" fill="none" xmlns="http://www.w3.org/2000/svg">
    <g clip-path="url(#clip0_2401_1849)">
        <path d="M15.6462 3.9526L15.6662 4.08326C15.4729 3.39726 14.9509 2.86793 14.2875 2.67526L14.2735 2.67193C13.0262 2.33326 8.00686 2.33326 8.00686 2.33326C8.00686 2.33326 3.0002 2.32659 1.7402 2.67193C1.0642 2.86793 0.541529 3.39726 0.351529 4.06926L0.348196 4.08326C-0.117804 6.51726 -0.121137 9.44193 0.368863 12.0479L0.348196 11.9159C0.541529 12.6019 1.06353 13.1313 1.72686 13.3239L1.74086 13.3273C2.98686 13.6666 8.00753 13.6666 8.00753 13.6666C8.00753 13.6666 13.0135 13.6666 14.2742 13.3273C14.9509 13.1313 15.4735 12.6019 15.6635 11.9299L15.6669 11.9159C15.8789 10.7839 16.0002 9.48127 16.0002 8.1506C16.0002 8.10193 16.0002 8.0526 15.9995 8.00327C16.0002 7.95793 16.0002 7.90393 16.0002 7.84993C16.0002 6.5186 15.8789 5.21593 15.6462 3.9526ZM6.40553 10.4339V5.57193L10.5829 8.0066L6.40553 10.4339Z" fill="#F2EFF4"/>
    </g>
    <defs>
        <clipPath id="clip0_2401_1849">
            <rect width="24" height="24" fill="white"/>
        </clipPath>
    </defs>
</svg>